<svg width="90" height="31" viewBox="0 0 90 31" fill="none" xmlns="http://www.w3.org/2000/svg">
<g clip-path="url(#clip0_1_402)">
<path d="M0 0H90L82.9182 15.5L90 31H0V0Z" fill="#EB5757"/>
<path d="M17.128 21.08C16.8827 21.08 16.6853 21.0053 16.536 20.856C16.3867 20.7067 16.312 20.504 16.312 20.248V10.52C16.312 10.2747 16.3813 10.0827 16.52 9.94401C16.6693 9.79468 16.872 9.72001 17.128 9.72001H20.984C22.1787 9.72001 23.1067 10.0133 23.768 10.6C24.4293 11.1867 24.76 12.0187 24.76 13.096C24.76 14.1627 24.4293 14.9947 23.768 15.592C23.1067 16.1893 22.1787 16.488 20.984 16.488H17.96V20.248C17.96 20.504 17.8853 20.7067 17.736 20.856C17.5973 21.0053 17.3947 21.08 17.128 21.08ZM20.808 15.16C22.3867 15.16 23.176 14.472 23.176 13.096C23.176 11.7307 22.3867 11.048 20.808 11.048H17.96V15.16H20.808ZM29.6839 21.112C28.9159 21.112 28.2385 20.9467 27.6519 20.616C27.0759 20.2853 26.6279 19.816 26.3079 19.208C25.9985 18.5893 25.8439 17.8747 25.8439 17.064C25.8439 16.2427 25.9985 15.528 26.3079 14.92C26.6279 14.3013 27.0759 13.8267 27.6519 13.496C28.2385 13.1653 28.9159 13 29.6839 13C30.4519 13 31.1239 13.1653 31.6999 13.496C32.2865 13.8267 32.7345 14.3013 33.0439 14.92C33.3639 15.528 33.5239 16.2427 33.5239 17.064C33.5239 17.8747 33.3639 18.5893 33.0439 19.208C32.7345 19.816 32.2865 20.2853 31.6999 20.616C31.1239 20.9467 30.4519 21.112 29.6839 21.112ZM29.6839 19.832C30.3985 19.832 30.9425 19.5973 31.3159 19.128C31.6999 18.6587 31.8919 17.9707 31.8919 17.064C31.8919 16.168 31.6999 15.4853 31.3159 15.016C30.9319 14.536 30.3879 14.296 29.6839 14.296C28.9799 14.296 28.4359 14.536 28.0519 15.016C27.6679 15.4853 27.4759 16.168 27.4759 17.064C27.4759 17.9707 27.6625 18.6587 28.0359 19.128C28.4199 19.5973 28.9692 19.832 29.6839 19.832ZM39.5151 13C40.1871 13 40.7845 13.1707 41.3071 13.512C41.8405 13.8533 42.2511 14.3333 42.5391 14.952C42.8378 15.5707 42.9871 16.2853 42.9871 17.096C42.9871 17.896 42.8431 18.6 42.5551 19.208C42.2671 19.816 41.8565 20.2853 41.3231 20.616C40.8005 20.9467 40.1978 21.112 39.5151 21.112C38.9285 21.112 38.4111 20.9893 37.9631 20.744C37.5151 20.488 37.1738 20.1253 36.9391 19.656V23.224C36.9391 23.448 36.8645 23.624 36.7151 23.752C36.5765 23.8907 36.3898 23.96 36.1551 23.96C35.9098 23.96 35.7071 23.8907 35.5471 23.752C35.3978 23.6133 35.3231 23.4267 35.3231 23.192V13.816C35.3231 13.5813 35.3978 13.3947 35.5471 13.256C35.6965 13.1067 35.8938 13.032 36.1391 13.032C36.3738 13.032 36.5658 13.1067 36.7151 13.256C36.8645 13.3947 36.9391 13.5813 36.9391 13.816V14.472C37.1738 14.0027 37.5151 13.64 37.9631 13.384C38.4111 13.128 38.9285 13 39.5151 13ZM39.1311 19.832C39.8351 19.832 40.3791 19.5973 40.7631 19.128C41.1471 18.648 41.3391 17.9707 41.3391 17.096C41.3391 16.2107 41.1418 15.5227 40.7471 15.032C40.3631 14.5413 39.8245 14.296 39.1311 14.296C38.4271 14.296 37.8831 14.536 37.4991 15.016C37.1258 15.496 36.9391 16.1787 36.9391 17.064C36.9391 17.9493 37.1258 18.632 37.4991 19.112C37.8831 19.592 38.4271 19.832 39.1311 19.832ZM50.8243 13.032C51.0696 13.032 51.2616 13.1013 51.4003 13.24C51.5496 13.3787 51.6243 13.5707 51.6243 13.816V20.328C51.6243 20.552 51.5496 20.7333 51.4003 20.872C51.2509 21.0107 51.0536 21.08 50.8083 21.08C50.5843 21.08 50.4029 21.016 50.2643 20.888C50.1256 20.7493 50.0563 20.568 50.0563 20.344V19.736C49.8109 20.184 49.4696 20.5253 49.0323 20.76C48.6056 20.9947 48.1256 21.112 47.5923 21.112C45.6936 21.112 44.7443 20.0667 44.7443 17.976V13.816C44.7443 13.5707 44.8136 13.3787 44.9523 13.24C45.1016 13.1013 45.3043 13.032 45.5603 13.032C45.8056 13.032 45.9976 13.1013 46.1363 13.24C46.2856 13.3787 46.3603 13.5707 46.3603 13.816V17.96C46.3603 18.5893 46.4883 19.0533 46.7443 19.352C47.0003 19.6507 47.3949 19.8 47.9283 19.8C48.5576 19.8 49.0589 19.5973 49.4323 19.192C49.8163 18.7867 50.0083 18.248 50.0083 17.576V13.816C50.0083 13.5813 50.0829 13.3947 50.2323 13.256C50.3816 13.1067 50.5789 13.032 50.8243 13.032ZM54.7016 21.08C54.467 21.08 54.2696 21.016 54.1096 20.888C53.9603 20.76 53.8856 20.568 53.8856 20.312V10.424C53.8856 10.168 53.9603 9.97601 54.1096 9.84801C54.2696 9.70934 54.467 9.64001 54.7016 9.64001C54.9363 9.64001 55.1283 9.70934 55.2776 9.84801C55.427 9.97601 55.5016 10.168 55.5016 10.424V20.312C55.5016 20.568 55.427 20.76 55.2776 20.888C55.1283 21.016 54.9363 21.08 54.7016 21.08ZM61.0406 13C62.0753 13 62.8433 13.2613 63.3446 13.784C63.8566 14.3067 64.1126 15.1013 64.1126 16.168V20.312C64.1126 20.5573 64.0433 20.7493 63.9046 20.888C63.766 21.016 63.574 21.08 63.3286 21.08C63.094 21.08 62.9073 21.0107 62.7686 20.872C62.63 20.7333 62.5606 20.5467 62.5606 20.312V19.72C62.358 20.168 62.054 20.5147 61.6486 20.76C61.254 20.9947 60.79 21.112 60.2566 21.112C59.7446 21.112 59.2753 21.0107 58.8486 20.808C58.4326 20.5947 58.102 20.3067 57.8566 19.944C57.6113 19.5813 57.4886 19.1707 57.4886 18.712C57.478 18.136 57.622 17.688 57.9206 17.368C58.2193 17.0373 58.7046 16.8027 59.3766 16.664C60.0486 16.5147 60.982 16.44 62.1766 16.44H62.5446V15.976C62.5446 15.3787 62.422 14.9467 62.1766 14.68C61.9313 14.4133 61.5366 14.28 60.9926 14.28C60.6193 14.28 60.2673 14.328 59.9366 14.424C59.606 14.52 59.2433 14.6587 58.8486 14.84C58.5606 15 58.358 15.08 58.2406 15.08C58.0806 15.08 57.9473 15.0213 57.8406 14.904C57.7446 14.7867 57.6966 14.6373 57.6966 14.456C57.6966 14.296 57.7393 14.1573 57.8246 14.04C57.9206 13.912 58.07 13.7893 58.2726 13.672C58.646 13.4693 59.0833 13.3093 59.5846 13.192C60.086 13.064 60.5713 13 61.0406 13ZM60.5446 19.912C61.1313 19.912 61.6113 19.7147 61.9846 19.32C62.358 18.9147 62.5446 18.3973 62.5446 17.768V17.352H62.2566C61.4246 17.352 60.7846 17.3893 60.3366 17.464C59.8886 17.5387 59.5686 17.6667 59.3766 17.848C59.1846 18.0187 59.0886 18.2693 59.0886 18.6C59.0886 18.984 59.2273 19.2987 59.5046 19.544C59.782 19.7893 60.1286 19.912 60.5446 19.912ZM70.4191 13.032C70.9311 13 71.1871 13.2187 71.1871 13.688C71.1871 13.9227 71.1285 14.0987 71.0111 14.216C70.8938 14.3333 70.6911 14.4027 70.4031 14.424L69.9231 14.472C69.2511 14.536 68.7498 14.7707 68.4191 15.176C68.0991 15.5813 67.9391 16.072 67.9391 16.648V20.312C67.9391 20.568 67.8645 20.76 67.7151 20.888C67.5658 21.016 67.3738 21.08 67.1391 21.08C66.9045 21.08 66.7071 21.016 66.5471 20.888C66.3978 20.76 66.3231 20.568 66.3231 20.312V13.8C66.3231 13.5547 66.3978 13.368 66.5471 13.24C66.7071 13.1013 66.9045 13.032 67.1391 13.032C67.3525 13.032 67.5285 13.1013 67.6671 13.24C67.8165 13.368 67.8911 13.5493 67.8911 13.784V14.552C68.1045 14.0827 68.4138 13.7253 68.8191 13.48C69.2245 13.2347 69.6831 13.0907 70.1951 13.048L70.4191 13.032Z" fill="white"/>
</g>
<defs>
<clipPath id="clip0_1_402">
<rect width="90" height="31" fill="white"/>
</clipPath>
</defs>
</svg>
